<?xml version="1.0" encoding="UTF-8"?>
<svg width="500px" height="500px" viewBox="0 0 500 500" version="1.1" xmlns="http://www.w3.org/2000/svg" xmlns:xlink="http://www.w3.org/1999/xlink">
    <title>Basketball</title>
    <defs>
        <linearGradient x1="2.12035617%" y1="13.4951552%" x2="32.6758351%" y2="81.2035689%" id="linearGradient-1">
            <stop stop-color="#493ACE" offset="0%"></stop>
            <stop stop-color="#6DD4D7" offset="100%"></stop>
        </linearGradient>
        <linearGradient x1="63.9065384%" y1="-2.49631849%" x2="30.8188907%" y2="45.9940384%" id="linearGradient-2">
            <stop stop-color="#E18C57" offset="0%"></stop>
            <stop stop-color="#915F83" offset="100%"></stop>
        </linearGradient>
        <linearGradient x1="56.4297094%" y1="-62.6297468%" x2="41.1315846%" y2="41.4052937%" id="linearGradient-3">
            <stop stop-color="#E18C57" offset="0%"></stop>
            <stop stop-color="#915F83" offset="100%"></stop>
        </linearGradient>
        <linearGradient x1="50%" y1="-38.3851316%" x2="50%" y2="100%" id="linearGradient-4">
            <stop stop-color="#FFA47D" offset="0%"></stop>
            <stop stop-color="#FF6B47" offset="100%"></stop>
        </linearGradient>
        <linearGradient x1="63.9065384%" y1="-26.5402409%" x2="30.8188907%" y2="44.1592615%" id="linearGradient-5">
            <stop stop-color="#E18C57" offset="0%"></stop>
            <stop stop-color="#915F83" offset="100%"></stop>
        </linearGradient>
        <linearGradient x1="50%" y1="0%" x2="50%" y2="100%" id="linearGradient-6">
            <stop stop-color="#FAD961" offset="0%"></stop>
            <stop stop-color="#F76B1C" offset="100%"></stop>
        </linearGradient>
        <linearGradient x1="63.7468837%" y1="-62.6297468%" x2="31.0391004%" y2="41.4052937%" id="linearGradient-7">
            <stop stop-color="#E18C57" offset="0%"></stop>
            <stop stop-color="#915F83" offset="100%"></stop>
        </linearGradient>
        <linearGradient x1="63.9065384%" y1="-36.8686288%" x2="30.8188907%" y2="43.3711086%" id="linearGradient-8">
            <stop stop-color="#E18C57" offset="0%"></stop>
            <stop stop-color="#915F83" offset="100%"></stop>
        </linearGradient>
        <linearGradient x1="50%" y1="0%" x2="50%" y2="100%" id="linearGradient-9">
            <stop stop-color="#FAD961" offset="0%"></stop>
            <stop stop-color="#F76B1C" offset="100%"></stop>
        </linearGradient>
        <linearGradient x1="50%" y1="0%" x2="50%" y2="100%" id="linearGradient-10">
            <stop stop-color="#FAD961" offset="0%"></stop>
            <stop stop-color="#F76B1C" offset="100%"></stop>
        </linearGradient>
        <linearGradient x1="50%" y1="0%" x2="50%" y2="100%" id="linearGradient-11">
            <stop stop-color="#FAD961" offset="0%"></stop>
            <stop stop-color="#F76B1C" offset="100%"></stop>
        </linearGradient>
        <linearGradient x1="51.7281736%" y1="-16.9689366%" x2="43.4021819%" y2="100%" id="linearGradient-12">
            <stop stop-color="#D8EEFF" offset="0%"></stop>
            <stop stop-color="#E4F7FF" offset="100%"></stop>
        </linearGradient>
        <linearGradient x1="66.2021441%" y1="49.3825807%" x2="-11.8565156%" y2="50.4609744%" id="linearGradient-13">
            <stop stop-color="#D8EEFF" offset="0%"></stop>
            <stop stop-color="#E4F7FF" offset="100%"></stop>
        </linearGradient>
    </defs>
    <g id="Page-1" stroke="none" stroke-width="1" fill="none" fill-rule="evenodd">
        <g id="Sports" transform="translate(-100.000000, -97.000000)">
            <g id="Basketball" transform="translate(100.000000, 97.000000)">
                <polygon id="Rectangle" points="0 0 500 0 500 500 0 500"></polygon>
                <g id="Group-5" transform="translate(64.629513, 114.047041)">
                    <path d="M21.2787308,0.300259079 L362.611127,63.4381952 C372.386425,65.2463802 378.845046,74.6366482 377.036861,84.4119458 C376.319424,88.2905083 374.34786,91.8260433 371.425309,94.4749407 L117.362683,324.74835 C109.99686,331.424473 98.6136128,330.86536 91.9374898,323.499537 C90.1279096,321.503011 88.7896615,319.125685 88.0214715,316.542939 L0.751700327,23.131593 C-2.0823996,13.6030121 3.34454949,3.58107913 12.8731304,0.746979204 C15.6003114,-0.0641702987 18.4809368,-0.217262671 21.2787308,0.300259079 Z" id="Path-221" fill="url(#linearGradient-1)"></path>
                    <path d="M149.973052,297.952959 L98.6853799,127.153779 C97.4619923,122.914326 99.9115603,118.487133 104.156643,117.265368 C105.42742,116.89963 106.769171,116.854249 108.061814,117.133288 L305.370487,159.294027" id="Shape" stroke="#FFFFFF" stroke-width="4.5"></path>
                    <path d="M367.370487,90.8052162 C349.666705,81.5129942 327.176941,75.9529588 302.69926,75.9529588 C245.632355,75.9529588 199.370487,106.173738 199.370487,143.452959 C199.370487,168.800192 220.757525,190.884282 252.386318,202.424518" id="Shape" stroke="#FFFFFF" stroke-width="4.5" stroke-linecap="round"></path>
                    <g id="IMG_0027" transform="translate(69.501744, 54.178570)">
                        <g id="Group-2" transform="translate(169.830365, 38.608642)">
                            <path d="M6.99552166,2.776319 C8.70123594,5.68874757 10.1799712,8.98443394 10.8685427,12.3134339" id="Path" stroke="#FFFFFF"></path>
                            <path d="M39.2183788,2.47003328 C36.6898074,5.49974757 34.6098074,9.47303328 33.8540931,13.3886047" id="Path" stroke="#FFFFFF"></path>
                            <path d="M29.2740931,1.51474757 C27.2226645,5.549319 26.3169502,9.96117614 26.1569502,14.450319" id="Path" stroke="#FFFFFF"></path>
                            <path d="M15.1126645,1.28860471 C17.4955217,5.27474757 19.1840931,9.885319 19.9569502,14.4894619" id="Path" stroke="#FFFFFF"></path>
                            <path d="M32.9255217,14.3374619 C36.0312359,15.7237476 39.4783788,17.0407476 42.9183788,17.2107476" id="Path" stroke="#FFFFFF"></path>
                            <path d="M38.4099441,2.77360471 C40.1095485,6.32517614 41.3370325,8.9744477 44.7770325,9.1444477" id="Path" stroke="#FFFFFF"></path>
                            <path d="M7.77703251,2.77360471 C6.07742811,6.32517614 4.84994411,8.9744477 1.40994411,9.1444477" id="Path" stroke="#FFFFFF"></path>
                            <path d="M12.0240931,13.4366047 C14.2955217,15.7720333 17.5555217,17.7411761 20.6340931,18.8711761 C21.6655217,19.2494619 22.8769502,19.3980333 23.8512359,19.8928904 C25.7026645,20.8336047 27.2083788,22.3997476 29.0869502,23.363319 C30.7698074,24.2271761 32.7940931,24.5220333 34.3883788,25.4460333 C36.7812359,26.8321761 38.6226645,28.455319 41.3269502,29.2451761" id="Path" stroke="#FFFFFF"></path>
                            <path d="M7.0383788,3.16574757 C9.30980737,5.50117614 12.5698074,7.470319 15.6483788,8.600319 C16.6798074,8.97860471 17.8912359,9.12717614 18.8655217,9.62203328 C20.7169502,10.5627476 22.2226645,12.1288904 24.1012359,13.0924619" id="Path" stroke="#FFFFFF"></path>
                            <path d="M38.4099441,3.77360471 C36.1385155,6.10903328 32.5698074,7.470319 29.4912359,8.600319 C28.4598074,8.97860471 27.2483788,9.12717614 26.2740931,9.62203328 C24.4226645,10.5627476 22.9169502,12.1288904 21.0383788,13.0924619" id="Path" stroke="#FFFFFF"></path>
                            <path d="M15.4583788,1.98789043 C16.9569502,3.982319 19.2912359,5.62117614 21.6598074,6.43089043 C22.5198074,6.72489043 23.4555217,6.80003328 24.2240931,7.310319 C26.1612359,8.59517614 27.6269502,10.3518904 29.7098074,11.5021761 C31.4012359,12.4368904 33.2026645,12.6557476 34.9283788,13.386319" id="Path" stroke="#FFFFFF"></path>
                            <path d="M27.9283788,0.987890427 C26.4298074,2.982319 24.0955217,4.62117614 21.7269502,5.43089043 C20.8669502,5.72489043 19.9312359,5.80003328 19.1626645,6.310319 C17.2255217,7.59517614 15.7598074,9.35189043 13.6769502,10.5021761 C11.9855217,11.4368904 10.1840931,11.6557476 8.4583788,12.386319" id="Path" stroke="#FFFFFF"></path>
                            <path d="M5.4583788,19.9878904 C6.95695023,21.982319 9.29123594,23.6211761 11.6598074,24.4308904 C12.5198074,24.7248904 13.4555217,24.8000333 14.2240931,25.310319 C16.1612359,26.5951761 17.6269502,28.3518904 19.7098074,29.5021761 C21.4012359,30.4368904 23.2026645,30.6557476 24.9283788,31.386319 C26.6912359,32.1331761 28.0926645,33.3608904 29.9669502,33.9330333 C31.3998074,34.370319 32.9640931,34.4048904 34.3655217,34.8784619 C37.0198074,35.7754619 39.1998074,37.3426047 42.0469502,37.7148904" id="Path" stroke="#FFFFFF"></path>
                            <path d="M6.44409308,29.0124619 C8.86980737,31.2851761 11.6840931,31.8550333 14.4712359,33.2751761 C16.0083788,34.0576047 17.1640931,35.3878904 18.7540931,36.1210333 C20.6398074,36.9901761 22.7255217,36.9427476 24.6583788,37.5891761 C26.7726645,38.2966047 28.6998074,39.4488904 30.8240931,40.1328904 C33.9383788,41.1358904 37.3083788,41.5521761 40.5126645,42.2127476" id="Path" stroke="#FFFFFF"></path>
                            <path d="M36.3226645,14.3488904 C31.7269502,16.707319 27.0626645,18.311319 22.3040931,20.1808904 C20.6826645,20.8177476 19.2383788,21.8084619 17.5855217,22.3894619 C13.5812359,23.7971761 9.5783788,24.2861761 6.07123594,26.9254619" id="Path" stroke="#FFFFFF"></path>
                            <path d="M43.3312359,17.6214619 C36.6712359,23.235319 28.0983788,29.2374619 19.8940931,32.2597476 C17.3840931,33.1840333 15.1026645,32.6470333 12.6469502,33.1747476 C10.0983788,33.7220333 7.84409308,35.1326047 5.38552166,35.9424619" id="Path" stroke="#FFFFFF"></path>
                            <path d="M41.0755217,28.6560333 C35.4726645,33.4101761 29.5269502,34.7944619 22.7940931,37.019319 C18.6555217,38.3866047 14.4540931,40.1754619 10.0355217,40.3586047" id="Path" stroke="#FFFFFF"></path>
                            <path d="M11.9626645,13.9287476 C9.88123594,15.4477476 7.67409308,17.131319 5.27980737,18.1400333" id="Path" stroke="#FFFFFF"></path>
                            <path d="M2.70123594,10.7314619 C6.42266451,19.3486047 7.46409308,29.6650333 4.86123594,38.7671761" id="Path" stroke="#FFFFFF"></path>
                            <path d="M11.5512359,13.2776047 C13.0883788,22.0786047 14.9012359,31.1200333 12.6483788,39.9907476" id="Path" stroke="#FFFFFF"></path>
                            <path d="M22.9012359,14.2958904 C23.9283788,23.6267476 24.7483788,33.2434619 23.5240931,42.6024619" id="Path" stroke="#FFFFFF"></path>
                            <path d="M35.1069502,13.3000333 C32.4840931,22.6704619 32.5826645,33.0111761 36.0826645,42.1261761" id="Path" stroke="#FFFFFF"></path>
                            <path d="M45.3483788,10.0694619 C41.8169502,18.938319 39.1440931,30.2747476 42.8698074,39.5426047" id="Path" stroke="#FFFFFF"></path>
                            <path d="M0.536950227,7.38389043 C0.47980737,7.20417614 0.44980737,7.02246186 0.451098987,6.83889043 C0.468378798,2.15946186 10.9155217,0.834461856 23.7955217,0.834461856 C36.6755217,0.834461856 46.8026645,2.39817614 47.1255217,6.83889043 C47.1469502,7.13460471 47.0498074,7.42717614 46.9012359,7.71274757 C45.8755217,4.49389043 35.8498074,2.96403328 23.6512359,2.96403328 C11.8698074,2.96403328 2.11695023,4.32317614 0.536950227,7.38389043 Z" id="Path" fill="#F35F83"></path>
                            <polygon id="Path" fill="#F35F83" points="45.8569703 9.96231617 72.3864127 10.4623162 72.4745293 5.96317897 45.9009482 5.42857143 46.9009482 7.71685372"></polygon>
                            <path d="M0.536950227,6.38389043 C1.56266451,9.60260471 11.5883788,12.1324619 23.7883788,12.1324619 C35.5683788,12.1324619 45.3226645,9.773319 46.9012359,6.71274757 C46.9598074,6.892319 46.9940931,7.07417614 46.9883788,7.25774757 C46.8112359,13.1187476 36.8955217,14.8608904 24.0155217,14.8608904 C11.1355217,14.8608904 0.891235941,12.5218904 0.314093084,7.25774757 C0.281235941,6.96289043 0.38980737,6.66946186 0.536950227,6.38389043 Z" id="Path" fill="#F35F83"></path>
                        </g>
                        <g id="Group" transform="translate(204.725714, 8.202961)"></g>
                        <path d="M34.9344578,10.9411035 C34.9344578,10.9411035 38.4201721,9.01467494 41.497315,8.48424637 C44.5744578,7.95396065 91.6830293,-3.8161822 97.957315,1.27410351 C104.231601,6.36438922 123.911601,41.2123892 120.607315,52.8706749 C117.301601,64.5288178 105.984458,57.0509607 103.770172,45.8936749 C102.450172,39.2402464 90.377315,13.7278178 90.377315,13.7278178 C90.377315,13.7278178 80.9830293,16.1979607 71.187315,14.0765321 C65.4187435,12.8271035 45.0358864,12.7051035 45.0358864,12.7051035 L38.4258864,16.6353892 L34.9344578,10.9411035 Z" id="Path" fill="url(#linearGradient-2)"></path>
                        <path d="M67.2248455,12.7437633 L68.2013619,13.6364281 L67.3450338,13.5503003 C59.3058325,12.7905152 45.0358864,12.7051035 45.0358864,12.7051035 L42.2914261,14.336495 L38.8214261,13.9217853 L39.8499212,13.1610138 C43.7339838,10.3056299 46.9452745,8.15067859 49.4837933,6.69615968 L52.7705293,5.96914229 C54.162864,5.66449257 55.6416453,5.34549269 57.1826753,5.02028273 C59.3981115,6.10416098 62.7456751,8.6784539 67.2248455,12.7437633 L67.2248455,12.7437633 Z" id="Path" fill-opacity="0.549142264" fill="#372732"></path>
                        <path d="M89.3215467,8.77438922 C94.3477316,6.67261452 103.834837,7.92279532 108.135886,17.5373892 C110.95205,23.832659 111.203406,33.2344161 108.889954,45.7426604 L108.761222,46.4280091 L109.510284,56.361597 C106.975545,54.1244474 104.785572,50.5025264 103.86124,46.3275119 L103.770172,45.8936749 C102.450172,39.2402464 90.377315,13.7278178 90.377315,13.7278178 L89.7794797,13.8693993 C88.8857174,14.0684939 87.043197,14.4344582 84.6156341,14.6816816 C85.8216543,11.5507054 87.3904773,9.58189489 89.3215467,8.77438922 Z" id="Path" fill-opacity="0.549142264" fill="#372732"></path>
                        <g id="Group-19" transform="translate(79.868744, 8.774389)">
                            <path d="M14.1131587,39.6897243 C14.280835,39.4978091 15.2379457,32.0801145 12.7959358,27.7587282 C10.3539258,23.4373419 8.46575936,22.2424109 8.46575936,22.2424109 C8.46575936,22.2424109 5.29621627,25.2779823 2.9227877,22.2424109 C0.549359125,19.2067109 3.24035913,17.5774538 3.24035913,17.5774538 C3.24035913,17.5774538 -4.76578373,8.74858233 4.39107341,2.62549661 C14.1612163,-3.90747481 20.0176448,3.24289661 22.5440734,7.92379661 C25.0692163,12.604568 26.7702163,19.9021538 24.4790734,21.8758538 C22.1892163,23.8495538 20.9822323,23.9688935 20.9822323,23.9688935 C20.9822323,23.9688935 24.1991986,31.1489591 28.5204843,33.1731876 C32.84177,35.1975448 33.3067877,43.8604109 26.0090734,46.1614538 C18.6843591,48.4708538 13.9454825,39.8816395 14.1131587,39.6897243 Z" id="Path" fill="url(#linearGradient-3)"></path>
                            <path d="M3.24035913,17.5774538 C3.24035913,17.5774538 -4.76578373,8.74858233 4.39107341,2.62549661 C9.18421627,-0.579917671 13.0362163,-0.491203386 16.0152163,0.983639471 C15.422502,1.95653947 14.5289306,2.95785376 13.1840734,3.84563947 C8.58250198,6.88519661 3.86264484,7.90168233 4.71764484,11.421968 C5.57264484,14.9423823 8.77150198,20.1554395 12.9140734,21.1375966 C17.0566448,22.1197538 18.6470734,21.1798966 18.6470734,21.1798966 C18.6470734,21.1798966 19.2912163,19.7798823 20.7672163,19.0049823 C22.2432163,18.2300823 24.2489306,18.7271395 24.9599306,17.9229252 C25.1322163,17.7271109 25.3109306,17.4325538 25.4819306,17.0989109 C25.7043591,19.244768 25.6301188,21.5500742 24.7371083,22.464383 C23.3939785,23.8395464 21.2339306,24.3480252 21.2339306,24.3480252 L21.2403591,24.3622966 C18.6689306,24.6865538 15.3132163,24.6670109 11.6913591,23.4907109 C8.54264484,22.4681823 5.54950198,19.7179109 3.24035913,17.5774538 Z" id="Path" fill="#372732"></path>
                            <path d="M19.625502,9.78833947 C20.7479306,10.7713966 23.4787877,12.6746395 21.0063591,13.8817966" id="Path" stroke="#4E3B48" stroke-width="0.5" stroke-linecap="round"></path>
                            <path d="M17.8679306,15.1339538 C17.8679306,15.1339538 20.9822323,16.1496399 20.9822323,16.3017477 C20.9822323,16.4538555 18.9090673,17.5080803 18.0633591,16.659068 C17.217651,15.8100558 17.8679306,15.1339538 17.8679306,15.1339538 Z" id="Path" fill="#703F63"></path>
                            <path d="M3.47563849,19.6158143 C4.59738104,20.0915122 5.56710996,20.8186121 6.38482525,21.7971139" id="Path-12" stroke="#703F63" stroke-width="0.9" stroke-linecap="round"></path>
                        </g>
                        <path d="M106.833029,40.5628178 L107.183923,40.8221359 C107.656522,41.2300042 108.148171,41.5963364 108.655842,41.9034536 L111.374939,43.9018672 C112.678965,45.5708613 113.212524,48.0225264 112.711547,50.3780563 L99.5281865,55.3900451 L93.613971,48.2930662 L93.6303818,48.1314884 L93.6303818,48.1314884 C99.5372143,50.1723837 103.712471,50.14775 106.155092,48.0570397 C107.538607,46.8728493 107.794871,44.4951423 106.923885,40.9239186 L106.833029,40.5628178 Z" id="Path" fill-opacity="0.549142264" fill="#372732"></path>
                        <g id="Group" transform="translate(14.036329, 4.366013)">
                            <circle id="Oval" fill="url(#linearGradient-4)" cx="14.0985714" cy="14.1074286" r="14.0427143"></circle>
                            <path d="M18.2955151,16.8462407 C22.3211967,17.5106241 25.2660453,18.3443211 27.1300607,19.3473319 C25.0543238,24.5075664 20.0018323,28.1501429 14.0985714,28.1501429 C7.79273742,28.1501429 2.45766579,23.993815 0.683447129,18.27125 C7.91810709,16.5772676 13.7884159,16.1024061 18.2955151,16.8462407 Z" id="Path" fill="#C75236"></path>
                        </g>
                        <path d="M28.1358864,4.4308178 C27.7116007,10.7345321 34.3616007,21.6739607 41.617315,22.4133892" id="Path" stroke="#E35938" stroke-width="0.5"></path>
                        <path d="M15.3887435,12.5778178 C23.3901721,12.3819607 29.9030293,22.3809607 29.6901721,32.4309607" id="Path" stroke="#E35938" stroke-width="0.5"></path>
                        <path d="M26.8891537,23.0611792 C31.3420587,23.3470494 45.747315,27.3162464 56.1787435,24.6543892 C56.1787435,24.6543892 75.6958864,72.1601035 82.9144578,80.5186749 C90.1330293,88.8786749 109.593029,73.9001035 92.0416007,52.3551035 C74.4916007,30.8093892 61.7887435,10.6505321 56.3544578,10.0161035 C50.9201721,9.38167494 30.9987435,18.4523892 26.0401721,18.7431035 C21.0816007,19.0336749 10.475493,19.338917 10.765493,21.2663456 C10.995493,22.7914885 13.7369192,22.4257786 13.7369192,22.4257786 C13.7369192,22.4257786 10.5797788,22.4737742 10.9612073,24.141917 C11.3440645,25.809917 14.4683478,25.1689215 14.4683478,25.1689215 C14.4683478,25.1689215 11.1426359,25.9302027 11.7183502,27.3384885 C12.295493,28.7467742 15.3369192,27.7603501 14.7197764,27.9183501 C14.1026335,28.0763501 11.8712073,28.9653456 12.6169216,30.2060599 C13.3626359,31.4467742 19.3987435,28.9616749 19.3987435,28.9616749 C19.3987435,28.9616749 16.5501721,31.1369607 16.8130293,32.9946749 C17.0758864,34.8523892 18.4330293,33.4238178 19.7516007,32.2545321 C21.0701721,31.0852464 23.5216007,29.7543892 24.0516007,27.7289607 C24.5816007,25.7035321 25.4138103,22.9664643 26.8891537,23.0611792 Z" id="Path" fill="url(#linearGradient-5)"></path>
                        <path d="M49.7157392,25.5965548 L49.4961159,25.6074603 L49.9662502,25.3700773 C52.4021713,24.1121843 54.8946654,22.4133892 55.1058177,22.4133892 C55.3231717,22.4133892 55.6808136,23.1603892 56.1787435,24.6543892 C54.1240682,25.1786944 51.9395336,25.4742411 49.7157392,25.5965548 Z" id="Path" fill-opacity="0.549142264" fill="#372732"></path>
                        <path d="M90.0206852,49.8543455 L91.0256164,51.102761 L91.0256164,51.102761 L91.8003011,52.0591035 L96.7265019,70.9921225 L83.1323011,80.7601035 L82.9144578,80.5186749 C81.9754893,79.4314189 80.8284294,77.6817945 79.5433011,75.4605156 C80.8868798,73.8641851 82.515097,71.3352336 84.427315,67.8749268 C86.6288534,63.8910722 88.4539506,58.0937399 89.9026063,50.4829299 L90.0206852,49.8543455 Z" id="Path" fill-opacity="0.549142264" fill="#372732"></path>
                        <g id="Group-3" transform="translate(52.789895, 123.671467) rotate(5.000000) translate(-52.789895, -123.671467) translate(41.877414, 105.324043)">
                            <path d="M15.008094,3.52784715 C15.008094,3.52784715 12.7002612,-0.392170977 11.3656898,0.0321147373 C10.0324041,0.457686166 7.4404041,3.74140045 5.91297553,6.58540045 C4.38554696,9.43068617 5.44752254,13.5551329 3.88280825,16.48399 C2.31809397,19.4128472 -0.0887631759,24.2008472 0.0025225384,28.00399 C0.136236824,33.5685614 2.43252254,36.4768472 4.08080825,36.6812757 C5.73037968,36.8857043 8.37380825,34.7128472 8.37380825,34.7128472 L15.008094,3.52784715 Z" id="Path" fill="#372732"></path>
                            <path d="M13.7352368,2.38870429 C15.4913271,2.93605529 21.5973797,9.30456144 21.8198083,10.7574186 C22.0422368,12.2115614 15.0029511,23.2802757 12.8969511,27.13999 C10.7909511,30.9984186 10.3628083,34.4518472 7.11252254,35.41999 C3.86223682,36.3868472 1.0426654,30.9585614 3.60895111,24.5762757 C6.17395111,18.19399 6.22537968,19.7818472 6.64709397,14.3651329 C7.06880825,8.94841858 11.9791465,1.84135329 13.7352368,2.38870429 Z" id="Path" fill="url(#linearGradient-6)"></path>
                        </g>
                        <path d="M116.025886,162.780104 L104.083029,152.415818 L103.953198,152.262239 C103.326243,151.557647 100.283667,148.514142 91.7275259,144.911945 L90.8958864,144.567246 C88.8418829,143.729013 79.7153243,135.277064 63.5162104,119.2114 L62.5155812,118.218284 C62.2220068,117.926693 61.7791671,117.846026 61.4016295,118.015368 C59.555913,118.843255 59.2816245,120.040144 60.5787639,121.606034 L60.7137159,121.763853 C64.2169016,125.736582 80.5265211,151.678077 85.9547497,163.310592 L86.1158864,163.658675 C90.4330293,173.060104 96.9363435,174.907905 101.737772,174.436477 C106.540629,173.965048 116.025886,162.780104 116.025886,162.780104 Z" id="Path" fill="url(#linearGradient-7)"></path>
                        <path d="M62.888335,124.646308 L65.6790477,121.381323 L67.917534,123.605462 C81.3330244,136.903516 88.972894,143.884312 90.8371428,144.547848 L90.8958864,144.567246 C91.3805815,144.713937 92.0537582,145.018695 92.8417189,145.42652 L83.1291639,157.737356 L82.5303563,156.629227 C76.7191586,145.95439 67.5094079,131.215953 62.888335,124.646308 Z" id="Path" fill-opacity="0.549142264" fill="#372732"></path>
                        <path d="M98.4942632,148.601905 L98.4916146,148.174838 L99.0583247,148.505346 C102.529971,150.567947 103.789791,152.038953 104.035833,152.35316 L104.083029,152.415818 L115.862615,162.637838 L116.017595,162.789854 L115.310995,163.599577 C114.188887,164.864778 111.878735,167.387984 109.341944,169.683184 C107.231087,167.751354 105.431796,165.798022 103.943703,163.822434 C100.421475,159.146333 98.6049948,154.072823 98.4942632,148.601905 Z" id="Path" fill-opacity="0.549142264" fill="#372732"></path>
                        <path d="M61.4005824,118.015838 C61.7365849,117.865052 62.124309,117.912333 62.4125049,118.130041 L62.5156176,118.219616 L64.417578,120.110527 L64.417578,120.110527 C63.6733842,120.516588 63.1165316,120.911089 62.7450649,121.293742 C62.4522407,121.595384 62.0654637,122.114081 61.5847337,122.849831 C61.2985243,122.47133 61.0476342,122.154561 60.8359735,121.905278 L60.7137159,121.763853 C59.2653498,120.120647 59.4943053,118.871309 61.4005824,118.015838 Z" id="Path" fill="#FFFFFF"></path>
                        <path d="M85.3830293,148.548675 L66.3587435,127.124389 L60.8385569,136.046283 C58.6029705,139.685356 56.3654005,143.369487 55.5876796,144.786841 L55.3737841,145.184607 C54.1697257,147.373309 55.787483,141.893045 49.747315,133.655818 C45.7523832,128.207764 36.4635728,120.710229 21.8808838,111.163211 L21.2143768,110.727862 C20.6780518,110.378301 20.0067974,110.306614 19.408747,110.535028 C17.688038,111.192221 17.4237673,112.332592 18.6159348,113.956141 L18.7444578,114.125818 C20.9990864,117.015418 34.6275755,143.412401 38.786809,152.730134 L39.5827369,154.554008 C43.0789279,162.423154 48.5903926,169.690714 55.2711618,169.682562 C62.1625904,169.672402 85.3830293,148.548675 85.3830293,148.548675 Z" id="Path" fill="url(#linearGradient-8)"></path>
                        <path d="M52.8778184,138.953401 C55.1703171,144.023536 54.4606043,146.829391 55.3599828,145.209581 L54.9290427,146.105263 C53.5001817,149.033077 52.6447016,150.335319 52.3626328,150.011859 C52.0953496,149.705354 52.2025445,146.743614 52.6842175,141.126637 L52.8778184,138.953401 Z" id="Path" fill-opacity="0.549142264" fill="#372732"></path>
                        <path d="M62.6826293,133.052855 L83.5586899,150.201475 L82.0300113,151.558599 C80.5987585,152.819205 78.7977898,154.37806 76.8046243,156.040742 C72.7835933,153.138411 69.6150987,150.282791 67.2975696,147.473204 C64.7643019,144.402072 62.7261422,140.406014 61.1830904,135.485031 L62.6826293,133.052855 L62.6826293,133.052855 Z" id="Path" fill-opacity="0.549142264" fill="#372732"></path>
                        <path d="M91.8630293,102.290104 C91.8630293,102.290104 84.3287435,103.935818 79.5458864,108.198675 C74.7644578,112.460104 59.917315,129.275818 59.917315,129.275818 C59.917315,129.275818 60.5430293,135.797246 65.8730293,142.144389 C71.2030293,148.491532 82.8301721,153.105818 82.8301721,153.105818 L98.6030293,136.405818 C98.6030293,136.405818 99.1016007,146.854389 99.8944578,150.082961 C102.021601,158.741532 110.412745,169.682402 115.930172,167.870104 C118.232671,167.113806 124.4005,153.8036 129.003357,138.9536 C133.604786,124.102171 132.903029,103.194389 132.903029,103.194389 L91.8630293,102.290104 Z" id="Path" fill="url(#linearGradient-9)"></path>
                        <path d="M109.284377,123.890467 L99.4621819,147.473204 L99.371332,146.702104 C99.1152191,144.414972 98.9145844,141.656088 98.7826614,139.570027 L98.6030293,136.405818 L109.284377,123.890467 Z" id="Path" fill-opacity="0.136309003" fill="#000000"></path>
                        <path d="M91.8630293,102.290104 L132.903029,103.194389 L132.936043,105.04942 C132.954997,107.18267 132.935217,110.985324 132.675855,115.555502 C130.367197,116.127685 127.821925,116.528937 125.04101,116.760104 C112.163674,117.830545 100.546875,113.156077 90.1906139,102.736702 L91.0351081,102.497362 L91.0351081,102.497362 L91.8630293,102.290104 Z" id="Path" fill-opacity="0.549142264" fill="#372732"></path>
                        <path d="M17.7244578,103.241532 C17.7244578,103.241532 14.127315,98.2701035 12.8387435,98.7058178 C11.5501721,99.1429607 6.78302926,104.095818 6.14160069,106.588675 C5.49874355,109.080104 5.59160069,111.540104 3.6858864,113.857246 C1.78017212,116.174389 0.024457831,121.568675 0,126.517246 C-0.0226850261,131.467246 2.2358864,136.917246 3.87731497,137.451532 C5.51874355,137.987246 8.77445783,134.858675 8.77445783,134.858675 L17.7244578,103.241532 Z" id="Path" fill="#372732"></path>
                        <path d="M22.707315,114.242961 C21.097315,116.814389 19.2630293,117.674389 17.9687435,117.920104 C16.6758864,118.165818 15.4444578,121.610104 15.0587435,125.940104 C14.6730293,130.271532 14.2458864,132.130104 11.247315,134.157246 C8.24731497,136.184389 5.79017212,135.572961 5.79017212,135.572961 C5.79017212,135.572961 3.25017212,132.098675 4.03731497,125.882961 C4.82445783,119.667246 5.87302926,114.991532 9.90017212,109.187246 C13.927315,103.382961 16.2401721,102.001532 17.4630293,102.315818 C18.687315,102.631532 23.7887435,109.034389 24.0358864,110.384389 C24.2830293,111.734389 23.3601721,113.201532 22.707315,114.242961 Z" id="Path" fill="url(#linearGradient-10)"></path>
                        <path d="M21.4725972,118.67246 L20.6729538,117.253851 C19.8359954,115.786915 19.1891419,114.72259 18.8087957,114.210436 L18.7444578,114.125818 C18.4969619,113.808577 18.30286,113.509051 18.162152,113.22724 L18.0666368,113.019201 C17.6409122,111.999972 18.1220422,110.828606 19.1412706,110.402882 C19.7376589,110.153775 20.417666,110.208228 20.9668127,110.549067 L21.7456926,111.038298 C22.8133882,111.716459 23.9978399,112.498034 25.2990475,113.383025 L25.7924734,113.719744 C26.0322723,113.88392 24.7936341,113.54557 23.108049,115.4833 C21.2074284,117.668232 21.6020687,118.879462 21.4725972,118.67246 L21.4725972,118.67246 Z" id="Path" fill="#FFFFFF"></path>
                        <path d="M90.037315,49.7641035 L93.6687435,47.6092464 C93.6687435,47.6092464 100.860172,53.5641035 105.948744,50.4276749 C111.037315,47.2912464 106.833029,40.5628178 106.833029,40.5628178 L109.001601,39.3461035 C109.001601,39.3461035 120.354458,42.7211035 128.983029,53.1148178 C144.051601,71.2658178 142.785886,102.997246 142.785886,102.997246 C142.785886,102.997246 135.96386,110.516178 122.301601,112.938675 C105.948744,115.83825 89.367315,103.022961 89.367315,103.022961 C89.367315,103.022961 91.9787435,95.3529607 91.8958864,95.1943892 C91.8130293,95.0358178 78.817315,78.3143892 78.817315,78.3143892 C78.817315,78.3143892 84.4444578,76.5901035 87.0944578,68.5201035 C90.5601721,57.9592464 90.037315,49.7641035 90.037315,49.7641035 Z" id="Path" fill="url(#linearGradient-11)"></path>
                        <path d="M142.804466,100.030628 L142.427679,100.445611 C139.013211,104.122229 132.737738,108.254866 122.488944,109.551417 C107.20128,111.485425 92.8882883,102.80952 90.0592195,100.971925 L90.4700277,99.7475332 C90.5173263,99.6056475 90.5649195,99.4625981 90.6125504,99.3191687 L91.0962186,99.6190718 C95.1525499,102.09322 104.887508,107.013072 118.981801,106.134275 C127.998364,105.57208 136.785172,101.683849 142.572976,94.3462375 L142.63278,95.3041421 C142.741672,97.1760139 142.78807,98.7795827 142.804466,100.030628 Z" id="Path" fill="#FFFFFF"></path>
                        <path d="M90.9516007,49.2211035 C92.3044578,55.6375321 92.7058864,64.7833892 89.297315,71.5958178 C86.8630293,76.4615321 83.5716007,79.4558178 81.0487435,81.1858178 C79.7187435,79.4743892 78.817315,78.3143892 78.817315,78.3143892 C78.817315,78.3143892 84.4444578,76.5901035 87.0944578,68.5201035 C90.5601721,57.9592464 90.037315,49.7641035 90.037315,49.7641035 L90.9516007,49.2211035 Z" id="Path" fill="#FFFFFF"></path>
                        <path d="M115.768727,94.4534248 L119.311009,96.1018027 C119.412943,96.1492318 119.530836,96.1203201 119.600242,96.0385793 L119.636004,95.9824048 L119.636004,95.9824048 C123.985412,86.5268567 125.539699,76.1475857 124.242774,64.84566 L124.114905,63.7940152 C123.977599,62.6980129 122.977806,61.9208359 121.881803,62.0581417 C121.72866,62.0773273 121.578252,62.1141754 121.433583,62.1679503 L105.613573,68.0483866 C105.095894,68.2408121 104.832225,68.8164651 105.02465,69.3341434 L105.895694,71.6774922 C106.088119,72.1951705 106.663772,72.45884 107.181451,72.2664144 L119.983054,67.5079463 C120.744282,76.8681852 119.361722,85.4614041 115.884898,93.3531284 L115.598404,93.991462 L115.598404,93.991462 C115.518583,94.1660873 115.594656,94.3724008 115.768727,94.4534248 Z" id="Path" fill="#372732"></path>
                        <g id="Group" transform="translate(100.622556, 61.596376) rotate(-30.507278) translate(-100.622556, -61.596376) translate(98.122556, 59.096376)" fill="#372732">
                            <ellipse id="Oval" cx="2.27510188" cy="2.53680361" rx="1.95285787" ry="2.43628662"></ellipse>
                        </g>
                        <path d="M107.661601,40.0981035 C112.948045,47.6092464 110.911747,51.4879025 107.661601,53.0572057 C102.283309,55.6540644 95.5044578,52.4241035 92.5330293,48.2828178 L93.6687435,47.6092464 C93.6687435,47.6092464 100.860172,53.5641035 105.948744,50.4276749 C111.037315,47.2912464 106.833029,40.5628178 106.833029,40.5628178 L107.661601,40.0981035 Z" id="Path" fill="#FFFFFF"></path>
                        <path d="M108.135886,39.8315321 L109.001601,39.3461035 C109.001601,39.3461035 116.474458,40.8688178 124.618744,48.5062464 L108.135886,39.8315321 Z" id="Path" fill="#FFFFFF"></path>
                        <line x1="55.0995298" y1="145.561297" x2="51.0644888" y2="152.114619" id="Path-18" stroke="#4E3B48" stroke-width="0.5" stroke-linecap="round"></line>
                    </g>
                    <g id="Group-4" transform="translate(293.370487, 3.952959)">
                        <path d="M4.28378684,18.7212577 L59.2837868,2.30334721 C62.4590453,1.35550886 65.8014757,3.16118964 66.7493141,6.33644813 C66.915556,6.89335844 67,7.47146816 67,8.05266129 L67,127.991023 C67,129.884619 66.1060969,131.667092 64.5885065,132.799622 L9.58850648,173.844398 C6.93279076,175.826276 3.17327872,175.280022 1.19140132,172.624306 C0.417892124,171.587804 0,170.329111 0,169.035799 L0,24.4705717 C0,21.8178818 1.74192891,19.4800212 4.28378684,18.7212577 Z" id="Rectangle" fill="#FFFFFF"></path>
                        <path d="M14.0134737,18.5917636 L61.6756491,1.86819328 C63.7601927,1.1367745 66.0429811,2.23369884 66.7743999,4.31824236 C66.9237244,4.7438172 67,5.19158128 67,5.64259321 L67,128.281878 C67,130.009456 66.2553496,131.653202 64.9566269,132.792433 L16.6377513,175.177411 C14.9770109,176.634201 12.4497534,176.468866 10.9929635,174.808126 C10.3529122,174.078467 10,173.140976 10,172.170375 L10,24.2533635 C10,21.7054218 11.609236,19.4353558 14.0134737,18.5917636 Z" id="Rectangle" fill="url(#linearGradient-12)" fill-rule="nonzero"></path>
                        <path d="M54.8465944,73.8871587 L96.4519944,71.7445463 C107.125621,71.1948713 116.223905,79.4019561 116.77358,90.0755832 C116.795283,90.4970079 116.803196,90.9190297 116.797306,91.3409717 C116.637387,102.796988 107.30501,112 95.847878,112 L31,112 C29.8954305,112 29,111.104569 29,110 L29,83.8221429 L54.2250704,74.0203051 C54.4238227,73.9430749 54.6336467,73.8981252 54.8465944,73.8871587 Z" id="Rectangle" fill="#FFFFFF"></path>
                        <path d="M95.847878,112 L31,112 C29.8954305,112 29,111.104569 29,110 L29,104 L112.317568,104.000481 C108.478763,108.875121 102.524051,112 95.847878,112 Z" id="Path" fill="url(#linearGradient-13)" fill-rule="nonzero"></path>
                    </g>
                </g>
            </g>
        </g>
    </g>
</svg>